<svg width="74" height="74" viewBox="0 0 74 74" fill="none" xmlns="http://www.w3.org/2000/svg">
<path fill-rule="evenodd" clip-rule="evenodd" d="M33.6666 0.500122H40.3333V10.3335H33.6666V0.500122ZM13.5332 8.83346L19.5332 14.8001L14.7999 19.5001L8.83322 13.5335L13.5332 8.83346ZM10.3333 33.6667H0.333252V40.3333H10.3333V33.6667ZM65.1586 13.5068L60.4679 8.81678L54.5049 14.7798L59.1952 19.4701L65.1586 13.5068ZM54.4666 59.2L60.4332 65.2L65.1332 60.5L59.1332 54.5334L54.4666 59.2ZM73.6666 33.6667H63.6666V40.3333H73.6666V33.6667ZM36.9999 17C25.9666 17 16.9999 25.9667 16.9999 37C16.9999 48.0333 25.9666 57 36.9999 57C48.0332 57 56.9999 48.0333 56.9999 37C56.9999 25.9667 48.0332 17 36.9999 17ZM23.6666 37C23.6666 44.3667 29.6333 50.3333 36.9999 50.3333C44.3666 50.3333 50.3333 44.3667 50.3333 37C50.3333 29.6333 44.3666 23.6667 36.9999 23.6667C29.6333 23.6667 23.6666 29.6333 23.6666 37ZM33.6666 63.6667H40.3333V73.5H33.6666V63.6667ZM13.5332 65.1667L8.83322 60.4667L14.7999 54.4667L19.4999 59.1667L13.5332 65.1667Z" fill="#00283F"/>
</svg>
