<svg width="68" height="46" viewBox="0 0 68 46" fill="none" xmlns="http://www.w3.org/2000/svg">
<path fill-rule="evenodd" clip-rule="evenodd" d="M15.9641 7.84527C14.7517 7.12427 13.9822 6.66667 12.1668 6.66667C10.3334 6.66667 9.56676 7.1 8.33343 7.86667C8.30108 7.88525 8.26853 7.90397 8.23575 7.92282C6.68073 8.81706 4.62371 10 1.00009 10V3.33333C2.86676 3.33333 3.60009 2.9 4.83342 2.13333C6.33342 1.23333 8.40009 0 12.1001 0C15.8001 0 17.8668 1.23333 19.3668 2.13333L19.4027 2.15473C20.6152 2.87573 21.3847 3.33333 23.2001 3.33333C25.0668 3.33333 25.8001 2.9 27.0334 2.13333C28.5334 1.23333 30.6001 0 34.3001 0C38.0001 0 40.0668 1.23333 41.5668 2.13333L41.6027 2.15473C42.8152 2.87573 43.5846 3.33333 45.4001 3.33333C47.2334 3.33333 48.0001 2.9 49.2334 2.13333C50.7334 1.23333 52.8001 0 56.5001 0C60.2001 0 62.2668 1.23333 63.7668 2.13333L63.8027 2.15473C65.0152 2.87573 65.7847 3.33333 67.6001 3.33333V10C63.9334 9.96667 61.9001 8.76667 60.4001 7.86667L60.3641 7.84527C59.1517 7.12427 58.3822 6.66667 56.5668 6.66667C54.7001 6.66667 53.9668 7.1 52.7334 7.86667C51.2334 8.76667 49.1668 10 45.4668 10C41.7668 10 39.7001 8.76667 38.2001 7.86667L38.1641 7.84528C36.9517 7.12427 36.1822 6.66667 34.3668 6.66667C32.5001 6.66667 31.7668 7.1 30.5334 7.86667C29.0334 8.76667 26.9668 10 23.2668 10C19.5668 10 17.5001 8.76667 16.0001 7.86667L15.9641 7.84527ZM15.9641 26.8453C14.7517 26.1243 13.9822 25.6667 12.1668 25.6667C10.3334 25.6667 9.56676 26.1 8.33343 26.8667L8.23575 26.9228C6.68073 27.8171 4.62371 29 1.00009 29V22.3333C2.86676 22.3333 3.60009 21.9 4.83342 21.1333C6.33342 20.2333 8.40009 19 12.1001 19C15.8001 19 17.8668 20.2333 19.3668 21.1333L19.4027 21.1547C20.6152 21.8757 21.3847 22.3333 23.2001 22.3333C25.0668 22.3333 25.8001 21.9 27.0334 21.1333C28.5334 20.2333 30.6001 19 34.3001 19C38.0001 19 40.0668 20.2333 41.5668 21.1333L41.6027 21.1547C42.8152 21.8757 43.5847 22.3333 45.4001 22.3333C47.2334 22.3333 48.0001 21.9 49.2334 21.1333C50.7334 20.2333 52.8001 19 56.5001 19C60.2001 19 62.2668 20.2333 63.7668 21.1333L63.8027 21.1547C65.0152 21.8757 65.7847 22.3333 67.6001 22.3333V29C63.9334 28.9667 61.9001 27.7667 60.4001 26.8667L60.3641 26.8453C59.1517 26.1243 58.3822 25.6667 56.5668 25.6667C54.7001 25.6667 53.9668 26.1 52.7334 26.8667C51.2334 27.7667 49.1668 29 45.4668 29C41.7668 29 39.7001 27.7667 38.2001 26.8667L38.1641 26.8453C36.9517 26.1243 36.1822 25.6667 34.3668 25.6667C32.5001 25.6667 31.7668 26.1 30.5334 26.8667C29.0334 27.7667 26.9668 29 23.2668 29C19.5668 29 17.5001 27.7667 16.0001 26.8667L15.9641 26.8453ZM56.2334 36.0006C52.5334 36.0006 50.4668 37.2339 48.9668 38.1339C47.7334 38.9006 46.9668 39.3339 45.1334 39.3339C43.318 39.3339 42.5485 38.8763 41.3361 38.1553L41.3001 38.1339C39.8001 37.2339 37.7334 36.0006 34.0334 36.0006C30.3672 36.0006 28.3047 37.2115 26.7756 38.1092L26.7334 38.1339C25.5001 38.9006 24.7668 39.3339 22.9001 39.3339C21.0334 39.3339 20.3001 38.9006 19.0667 38.1339C17.5667 37.2339 15.5001 36.0006 11.8001 36.0006C8.13391 36.0006 6.07134 37.2115 4.54227 38.1092L4.50008 38.1339C3.26675 38.9006 2.53341 39.3339 0.666748 39.3339V46.0006C4.33292 46.0006 6.39549 44.7897 7.92455 43.892L7.96675 43.8673C9.20008 43.1006 9.96675 42.6673 11.8001 42.6673C13.6334 42.6673 14.4001 43.1006 15.6334 43.8673C17.1334 44.7673 19.2001 46.0006 22.9001 46.0006C26.5663 46.0006 28.6288 44.7897 30.1579 43.892L30.2001 43.8673C31.4334 43.1006 32.1667 42.6673 34.0334 42.6673C35.8489 42.6673 36.6183 43.1249 37.8308 43.8459L37.8667 43.8673C39.3667 44.7673 41.4334 46.0006 45.1334 46.0006C48.7683 46.0006 50.7947 44.8103 52.3187 43.9151L52.4001 43.8673C53.6334 43.1006 54.3668 42.6673 56.2334 42.6673C58.0489 42.6673 58.8183 43.1249 60.0308 43.8459L60.0667 43.8673C61.5667 44.7673 63.6334 46.0006 67.3334 46.0006V39.3339C65.4668 39.3339 64.7334 38.9006 63.5001 38.1339C62.0001 37.2339 59.9334 36.0006 56.2334 36.0006Z" fill="#00283F"/>
</svg>
