<svg width="48" height="68" viewBox="0 0 48 68" fill="none" xmlns="http://www.w3.org/2000/svg">
<path fill-rule="evenodd" clip-rule="evenodd" d="M24.0001 0.666626C11.1334 0.666626 0.666748 11.1333 0.666748 24C0.666748 31.9333 4.63342 38.9 10.6667 43.1333V50.6666C10.6667 52.5 12.1667 54 14.0001 54H34.0001C35.8334 54 37.3334 52.5 37.3334 50.6666V43.1333C43.3668 38.9 47.3334 31.9333 47.3334 24C47.3334 11.1333 36.8668 0.666626 24.0001 0.666626ZM14.0001 64C14.0001 65.8333 15.5001 67.3333 17.3334 67.3333H30.6667C32.5001 67.3333 34.0001 65.8333 34.0001 64V60.6666H14.0001V64ZM30.6667 39.6666L33.5001 37.6666C38.0001 34.5333 40.6667 29.4333 40.6667 24C40.6667 14.8 33.2001 7.33329 24.0001 7.33329C14.8001 7.33329 7.33341 14.8 7.33341 24C7.33341 29.4333 10.0001 34.5333 14.5001 37.6666L17.3334 39.6666V47.3333H30.6667V39.6666Z" fill="#00283F"/>
</svg>
