<svg width="22" height="30" viewBox="0 0 22 30" fill="none" xmlns="http://www.w3.org/2000/svg">
<path fill-rule="evenodd" clip-rule="evenodd" d="M11 0C5.195 0 0.5 4.695 0.5 10.5C0.5 18.375 11 30 11 30C11 30 21.5 18.375 21.5 10.5C21.5 4.695 16.805 0 11 0ZM3.5 10.5C3.5 6.36 6.86 3 11 3C15.14 3 18.5 6.36 18.5 10.5C18.5 14.82 14.18 21.285 11 25.32C7.88 21.315 3.5 14.775 3.5 10.5ZM7.25 10.5C7.25 8.42893 8.92893 6.75 11 6.75C12.3397 6.75 13.5777 7.46475 14.2476 8.625C14.9175 9.78525 14.9175 11.2147 14.2476 12.375C13.5777 13.5353 12.3397 14.25 11 14.25C8.92893 14.25 7.25 12.5711 7.25 10.5Z" fill="white"/>
</svg>
