<svg width="28" height="28" viewBox="0 0 28 28" fill="none" xmlns="http://www.w3.org/2000/svg">
<path fill-rule="evenodd" clip-rule="evenodd" d="M2 0.5H7.25C8.075 0.5 8.75 1.175 8.75 2C8.75 3.875 9.05 5.675 9.605 7.355C9.77 7.88 9.65 8.465 9.23 8.885L5.93 12.185C8.09 16.43 11.57 19.895 15.815 22.07L19.115 18.77C19.415 18.485 19.79 18.335 20.18 18.335C20.33 18.335 20.495 18.35 20.645 18.41C22.325 18.965 24.14 19.265 26 19.265C26.825 19.265 27.5 19.94 27.5 20.765V26C27.5 26.825 26.825 27.5 26 27.5C11.915 27.5 0.5 16.085 0.5 2C0.5 1.175 1.175 0.5 2 0.5ZM5.81014 3.5C5.90014 4.835 6.12514 6.14 6.48514 7.385L4.68514 9.185C4.07014 7.385 3.68014 5.48 3.54514 3.5H5.81014ZM20.6001 21.53C21.8751 21.89 23.1801 22.115 24.5001 22.205V24.44C22.5201 24.305 20.6151 23.915 18.8001 23.315L20.6001 21.53Z" fill="white"/>
</svg>
